<svg id="svg" version="1.1" xmlns="http://www.w3.org/2000/svg" xmlns:xlink="http://www.w3.org/1999/xlink" width="400" height="711.1111111111111" viewBox="0, 0, 400,711.1111111111111"><g id="svgg"><path id="path0" d="M0.000 355.400 L 0.000 710.800 200.000 710.800 L 400.000 710.800 400.000 355.400 L 400.000 0.000 200.000 0.000 L 0.000 0.000 0.000 355.400 M276.072 311.065 C 277.038 311.940,277.228 402.346,276.266 403.146 C 275.758 403.567,168.148 403.881,167.730 403.463 C 167.642 403.375,167.580 394.750,167.592 384.296 C 167.610 368.614,167.514 365.089,167.044 364.145 C 166.731 363.515,166.289 362.550,166.062 362.000 C 165.836 361.450,165.099 359.772,164.425 358.272 C 163.751 356.772,163.200 355.449,163.200 355.333 C 163.200 355.119,162.900 354.420,161.085 350.400 C 160.538 349.190,159.706 347.345,159.236 346.300 C 158.508 344.685,158.211 344.400,157.252 344.400 C 155.720 344.400,153.600 347.193,153.600 349.212 C 153.600 349.592,153.330 350.126,153.000 350.400 C 152.670 350.674,152.400 351.131,152.400 351.417 C 152.400 351.702,152.147 352.445,151.837 353.068 C 151.082 354.586,150.504 356.009,150.198 357.100 C 150.060 357.595,149.778 358.000,149.573 358.000 C 149.368 358.000,149.194 358.405,149.187 358.900 C 149.180 359.395,148.910 360.149,148.587 360.576 C 148.264 361.004,148.000 361.656,148.000 362.027 C 148.000 362.398,147.730 362.926,147.400 363.200 C 146.882 363.630,146.800 366.349,146.800 383.169 C 146.800 397.780,146.680 402.760,146.320 403.120 C 145.636 403.804,124.575 403.806,124.152 403.122 C 123.782 402.524,123.840 311.782,124.211 311.183 C 124.792 310.242,128.194 310.203,200.648 310.303 C 269.360 310.398,275.402 310.459,276.072 311.065 M217.498 317.035 C 217.334 317.199,216.168 317.474,214.907 317.645 C 213.646 317.816,212.551 318.146,212.474 318.378 C 212.397 318.610,212.084 318.800,211.778 318.800 C 208.967 318.800,202.614 326.292,201.436 330.998 C 200.874 333.240,201.075 333.200,190.397 333.200 L 180.492 333.200 179.846 334.186 C 178.701 335.934,178.883 373.589,180.042 374.638 C 181.202 375.687,220.150 375.842,220.809 374.800 C 221.018 374.468,221.193 370.086,221.200 365.000 C 221.213 354.582,221.324 354.086,223.811 353.295 C 229.695 351.423,236.400 345.202,236.400 341.615 C 236.400 341.251,236.664 340.604,236.987 340.176 C 237.413 339.614,237.575 338.298,237.575 335.400 C 237.575 332.502,237.413 331.186,236.987 330.624 C 236.664 330.196,236.400 329.442,236.400 328.947 C 236.400 328.452,236.220 327.936,236.000 327.800 C 235.780 327.664,235.600 327.225,235.600 326.825 C 235.600 325.711,230.731 320.726,228.543 319.600 C 227.474 319.050,226.492 318.453,226.360 318.274 C 225.903 317.652,217.988 316.545,217.498 317.035 M222.537 321.577 C 222.770 321.810,223.442 322.000,224.031 322.000 C 224.620 322.000,225.326 322.270,225.600 322.600 C 225.874 322.930,226.330 323.200,226.613 323.200 C 227.346 323.200,230.877 326.906,231.644 328.479 C 231.998 329.205,232.529 330.305,232.824 330.923 C 233.526 332.394,233.531 338.391,232.831 339.877 C 231.428 342.858,230.931 343.560,228.713 345.700 C 227.401 346.965,225.984 348.000,225.564 348.000 C 225.144 348.000,224.800 348.168,224.800 348.373 C 224.800 348.878,223.455 349.273,222.711 348.987 C 221.601 348.561,221.312 347.035,221.236 341.200 C 221.173 336.359,220.993 333.981,220.657 333.523 C 220.625 333.481,217.270 333.346,213.200 333.223 L 205.800 333.000 205.666 332.054 C 205.593 331.533,205.728 330.912,205.966 330.674 C 206.205 330.435,206.400 329.910,206.400 329.507 C 206.400 329.105,206.670 328.671,207.000 328.545 C 207.330 328.418,207.600 328.064,207.600 327.757 C 207.600 326.449,213.122 322.000,214.746 322.000 C 215.166 322.000,216.024 321.720,216.654 321.377 C 217.918 320.690,221.781 320.821,222.537 321.577 M131.691 331.216 C 130.360 331.750,130.150 332.727,131.150 333.728 C 131.974 334.552,167.692 335.266,171.050 334.526 C 172.427 334.222,172.961 332.561,171.994 331.594 C 171.124 330.724,133.788 330.373,131.691 331.216 M200.442 338.114 C 200.795 338.383,201.213 339.052,201.370 339.602 C 203.063 345.498,210.727 353.200,214.903 353.200 C 217.015 353.200,217.200 353.938,217.200 362.343 C 217.200 367.952,217.061 370.379,216.720 370.720 C 216.363 371.077,212.167 371.200,200.310 371.200 L 184.380 371.200 183.990 370.174 C 183.379 368.566,183.476 339.387,184.096 338.395 C 184.703 337.423,199.208 337.174,200.442 338.114 M216.720 338.080 C 217.765 339.125,217.348 348.350,216.233 348.858 C 214.609 349.598,207.600 344.819,207.600 342.972 C 207.600 342.657,207.423 342.400,207.208 342.400 C 206.992 342.400,206.697 341.905,206.552 341.300 C 206.408 340.695,206.122 339.987,205.917 339.726 C 204.482 337.899,214.945 336.305,216.720 338.080 M253.525 339.218 C 253.154 339.434,252.447 340.419,251.954 341.406 C 251.461 342.393,250.910 343.200,250.729 343.200 C 250.548 343.200,250.400 343.384,250.400 343.610 C 250.400 343.949,245.955 351.979,243.762 355.600 C 242.372 357.896,241.909 359.379,242.265 360.393 L 242.619 361.400 254.209 361.510 C 268.439 361.644,269.035 361.457,266.600 357.600 C 266.050 356.729,265.600 355.845,265.600 355.637 C 265.600 355.428,265.375 355.011,265.100 354.710 C 264.634 354.201,264.022 353.171,262.418 350.200 C 260.341 346.353,258.569 343.333,258.117 342.871 C 257.833 342.581,257.600 342.126,257.600 341.861 C 257.600 341.180,255.351 338.798,254.723 338.812 C 254.435 338.819,253.896 339.001,253.525 339.218 M256.537 348.500 C 257.267 349.655,257.987 350.870,258.137 351.200 C 258.288 351.530,258.942 352.700,259.592 353.800 C 261.763 357.475,261.176 358.002,254.926 357.995 C 249.090 357.987,248.800 357.890,248.800 355.941 C 248.800 354.918,249.008 354.295,249.400 354.145 C 249.730 354.018,250.000 353.574,250.000 353.157 C 250.000 352.741,250.140 352.400,250.311 352.400 C 250.483 352.400,251.326 351.050,252.187 349.400 C 254.104 345.723,254.704 345.599,256.537 348.500 M157.985 354.161 C 158.186 354.690,158.542 355.240,158.775 355.385 C 159.009 355.529,159.200 355.970,159.200 356.364 C 159.200 356.758,159.650 357.927,160.200 358.962 C 162.051 362.443,161.411 363.200,156.618 363.200 C 151.883 363.200,151.843 362.723,155.887 354.500 C 156.643 352.961,157.478 352.826,157.985 354.161 M162.466 368.800 C 162.906 370.868,162.843 421.283,162.400 422.000 C 162.008 422.634,153.019 422.876,151.499 422.293 C 150.415 421.877,150.416 368.267,151.500 367.626 C 151.907 367.385,154.286 367.251,157.184 367.306 L 162.168 367.400 162.466 368.800 M248.321 374.545 C 247.344 374.968,239.564 381.525,234.429 386.253 C 233.203 387.382,231.570 388.822,230.800 389.452 C 230.030 390.083,229.051 390.914,228.625 391.300 C 227.783 392.060,225.798 392.245,225.400 391.600 C 225.264 391.380,224.800 391.200,224.368 391.200 C 223.936 391.200,222.372 390.637,220.892 389.950 C 219.411 389.262,217.750 388.523,217.200 388.308 C 216.067 387.863,214.198 387.085,212.294 386.263 C 208.468 384.612,208.381 384.612,204.486 386.248 C 203.764 386.552,202.841 386.800,202.435 386.800 C 202.030 386.800,201.474 387.070,201.200 387.400 C 200.926 387.730,200.362 388.000,199.946 388.000 C 199.530 388.000,198.877 388.165,198.495 388.366 C 196.925 389.193,191.274 391.200,190.515 391.200 C 190.066 391.200,189.474 391.470,189.200 391.800 C 188.926 392.130,188.464 392.400,188.174 392.400 C 185.796 392.400,184.025 395.174,185.531 396.538 C 186.611 397.515,187.635 397.331,190.895 395.574 C 191.277 395.368,192.096 395.200,192.715 395.200 C 193.334 395.200,194.050 394.990,194.307 394.733 C 194.758 394.282,196.946 393.369,198.600 392.940 C 199.534 392.699,200.006 392.514,203.952 390.847 C 207.358 389.408,208.851 389.306,211.267 390.347 C 212.835 391.023,213.903 391.491,218.400 393.475 C 219.170 393.815,220.278 394.342,220.862 394.646 C 221.446 394.951,222.184 395.200,222.502 395.200 C 222.820 395.200,223.927 395.650,224.962 396.200 C 227.259 397.422,227.984 397.447,229.165 396.347 C 229.668 395.878,231.457 394.334,233.140 392.916 C 235.629 390.819,239.171 387.712,242.164 385.000 C 242.407 384.780,243.594 383.756,244.803 382.725 C 250.094 378.209,251.266 376.922,251.130 375.778 C 250.971 374.444,249.770 373.917,248.321 374.545 M162.345 427.900 C 162.550 428.285,162.601 429.680,162.459 431.000 L 162.200 433.400 157.140 433.512 C 151.118 433.645,150.800 433.481,150.800 430.251 C 150.800 427.283,150.965 427.200,156.866 427.200 C 161.320 427.200,162.019 427.289,162.345 427.900 " stroke="none" fill="#fbfbfb" fill-rule="evenodd"></path><path id="path1" d="M125.732 312.110 C 125.417 312.619,125.449 401.323,125.764 402.300 C 126.053 403.198,126.073 403.200,135.063 403.200 C 146.973 403.200,145.570 405.932,145.587 382.700 C 145.595 371.101,145.745 364.000,145.982 364.000 C 146.192 364.000,146.482 363.370,146.626 362.600 C 146.771 361.830,147.026 361.200,147.193 361.200 C 147.361 361.200,147.614 360.472,147.757 359.581 C 147.899 358.691,148.172 358.059,148.364 358.178 C 148.555 358.296,148.831 357.760,148.976 356.985 C 149.122 356.211,149.411 355.683,149.620 355.812 C 149.833 355.944,150.000 355.416,150.000 354.611 C 150.000 353.703,150.221 353.090,150.600 352.945 C 150.930 352.818,151.200 352.396,151.200 352.006 C 151.200 351.617,151.470 351.074,151.800 350.800 C 152.130 350.526,152.400 349.784,152.400 349.151 C 152.400 348.518,152.566 348.000,152.768 348.000 C 152.971 348.000,153.255 347.460,153.400 346.800 C 153.545 346.140,153.810 345.600,153.988 345.600 C 154.167 345.600,154.418 345.195,154.545 344.700 C 154.673 344.205,155.334 343.487,156.013 343.105 L 157.249 342.409 158.625 343.745 C 159.381 344.480,160.000 345.358,160.000 345.698 C 160.000 346.037,160.270 346.418,160.600 346.545 C 160.930 346.671,161.200 347.211,161.200 347.745 C 161.200 348.278,161.430 348.803,161.711 348.911 C 161.993 349.019,162.268 349.713,162.324 350.453 C 162.380 351.194,162.600 351.860,162.813 351.933 C 163.026 352.007,163.200 352.417,163.200 352.846 C 163.200 353.274,163.470 353.729,163.800 353.855 C 164.193 354.006,164.400 354.630,164.400 355.666 C 164.400 356.562,164.565 357.146,164.780 357.012 C 164.989 356.883,165.278 357.411,165.424 358.185 C 165.569 358.960,165.833 359.503,166.011 359.393 C 166.189 359.283,166.462 359.780,166.618 360.497 C 166.773 361.213,167.062 361.903,167.259 362.029 C 167.461 362.158,167.630 370.842,167.646 381.976 C 167.675 401.018,167.702 401.702,168.438 401.894 C 168.857 402.004,169.200 402.342,169.200 402.647 C 169.200 403.115,177.243 403.200,221.536 403.200 L 273.872 403.200 274.336 402.181 C 274.917 400.905,275.011 312.578,274.431 312.219 C 273.862 311.867,125.949 311.759,125.732 312.110 M224.447 316.652 C 224.751 316.893,225.526 317.216,226.168 317.370 C 228.491 317.926,234.400 322.186,234.400 323.304 C 234.400 323.581,234.863 324.308,235.429 324.918 C 237.133 326.756,238.474 331.195,238.084 333.706 C 237.905 334.858,237.906 336.506,238.087 337.369 C 238.476 339.221,237.653 342.516,236.407 344.100 C 235.963 344.664,235.600 345.373,235.600 345.674 C 235.600 345.976,235.285 346.502,234.900 346.844 C 234.515 347.186,233.722 347.991,233.138 348.633 C 231.474 350.460,230.143 351.474,228.094 352.475 C 227.052 352.984,225.960 353.627,225.668 353.904 C 225.375 354.181,224.968 354.304,224.764 354.178 C 224.222 353.843,222.748 354.392,223.018 354.829 C 223.144 355.033,223.057 355.200,222.824 355.200 C 222.538 355.200,222.396 358.288,222.387 364.700 C 222.375 374.172,222.372 374.203,221.407 375.300 L 220.438 376.400 200.366 376.400 C 178.482 376.400,178.800 376.434,178.800 374.115 C 178.800 373.806,178.620 373.664,178.400 373.800 C 178.135 373.964,178.000 367.396,178.000 354.400 C 178.000 341.404,178.135 334.836,178.400 335.000 C 178.620 335.136,178.800 334.899,178.800 334.473 C 178.800 332.762,179.617 332.610,189.943 332.400 L 199.765 332.200 200.018 331.200 C 200.157 330.650,200.480 330.245,200.735 330.300 C 201.028 330.363,201.200 329.803,201.200 328.787 C 201.200 327.723,201.404 327.097,201.800 326.945 C 202.130 326.818,202.400 326.532,202.400 326.310 C 202.400 325.382,207.477 319.997,209.147 319.153 C 209.726 318.860,210.629 318.301,211.154 317.911 C 211.679 317.520,212.489 317.199,212.954 317.198 C 213.419 317.197,214.316 316.882,214.947 316.498 C 216.248 315.707,223.400 315.823,224.447 316.652 M213.406 323.590 C 211.275 324.604,208.800 326.752,208.800 327.587 C 208.800 327.957,208.350 328.683,207.800 329.200 C 205.169 331.671,206.566 332.397,213.980 332.413 C 222.568 332.432,222.137 332.005,222.400 340.744 L 222.600 347.400 223.834 347.520 C 224.585 347.594,225.270 347.398,225.583 347.020 C 225.866 346.679,226.280 346.400,226.502 346.400 C 226.724 346.400,227.200 346.085,227.559 345.700 C 227.918 345.315,228.569 344.801,229.006 344.559 C 229.443 344.316,229.978 343.596,230.195 342.959 C 230.412 342.321,230.726 341.700,230.893 341.578 C 231.060 341.455,231.236 340.875,231.285 340.287 C 231.333 339.700,231.604 339.131,231.886 339.022 C 232.598 338.749,232.612 332.137,231.902 331.901 C 231.628 331.809,231.385 331.479,231.363 331.167 C 231.340 330.855,231.294 330.184,231.261 329.676 C 231.227 329.168,231.020 328.864,230.800 329.000 C 230.580 329.136,230.400 328.912,230.400 328.503 C 230.400 327.616,227.454 324.533,226.248 324.157 C 225.782 324.011,225.272 323.691,225.115 323.446 C 224.574 322.597,215.251 322.712,213.406 323.590 M172.152 330.120 C 173.800 331.648,173.889 332.973,172.441 334.421 C 171.758 335.103,171.200 335.828,171.200 336.031 C 171.200 336.251,163.531 336.400,152.165 336.400 L 133.131 336.400 131.401 335.158 C 128.829 333.310,128.729 331.857,131.051 330.031 C 132.088 329.215,132.471 329.200,151.633 329.200 L 171.159 329.200 172.152 330.120 M256.257 338.495 C 257.005 339.007,257.827 340.078,258.178 340.995 C 258.515 341.878,259.243 343.087,259.795 343.683 C 260.348 344.278,260.800 345.030,260.800 345.354 C 260.800 345.678,261.025 346.181,261.300 346.471 C 261.575 346.762,262.237 347.810,262.771 348.800 C 264.494 351.995,264.593 352.161,265.100 352.713 C 265.375 353.012,265.600 353.514,265.600 353.829 C 265.600 354.143,265.780 354.400,266.000 354.400 C 266.220 354.400,266.403 354.715,266.407 355.100 C 266.411 355.485,266.951 356.592,267.607 357.560 C 269.109 359.776,269.099 360.253,267.522 361.881 L 266.243 363.200 254.573 363.200 L 242.903 363.200 241.952 361.803 C 241.428 361.034,240.865 360.404,240.700 360.403 C 240.535 360.401,240.400 360.130,240.400 359.800 C 240.400 359.470,240.560 359.200,240.757 359.200 C 240.953 359.200,241.237 358.705,241.388 358.100 C 241.539 357.495,242.098 356.427,242.631 355.727 C 243.164 355.026,243.600 354.164,243.600 353.810 C 243.600 353.208,243.850 352.809,245.098 351.417 C 245.372 351.111,245.648 350.520,245.712 350.102 C 245.775 349.684,246.469 348.455,247.253 347.371 C 248.037 346.287,249.111 344.500,249.639 343.400 C 250.168 342.300,250.735 341.340,250.900 341.267 C 251.065 341.193,251.200 340.901,251.200 340.618 C 251.200 340.040,253.901 337.600,254.540 337.600 C 254.766 337.600,255.539 338.003,256.257 338.495 M185.172 338.887 C 184.298 339.212,183.929 369.261,184.793 369.795 C 185.081 369.974,207.178 370.132,214.900 370.011 C 215.636 369.999,216.034 354.443,215.300 354.370 C 214.032 354.245,212.995 353.915,212.781 353.569 C 212.642 353.344,212.032 353.106,211.426 353.042 C 210.820 352.977,210.206 352.748,210.062 352.532 C 209.918 352.316,209.180 351.793,208.423 351.370 C 206.771 350.446,204.400 348.127,204.400 347.435 C 204.400 347.163,203.950 346.517,203.400 346.000 C 202.850 345.483,202.400 344.751,202.400 344.373 C 202.400 343.995,202.130 343.582,201.800 343.455 C 201.423 343.311,201.200 342.699,201.200 341.813 C 201.200 340.909,201.023 340.436,200.709 340.500 C 200.440 340.555,200.158 340.203,200.084 339.718 C 199.944 338.800,187.299 338.096,185.172 338.887 M207.300 338.665 C 207.025 338.776,206.800 339.225,206.800 339.662 C 206.800 340.099,207.025 340.708,207.300 341.015 C 208.449 342.296,208.800 342.784,208.800 343.102 C 208.800 343.542,211.502 346.073,212.886 346.929 C 214.311 347.809,215.586 347.796,215.650 346.900 C 215.800 344.805,215.633 339.178,215.411 338.818 C 215.152 338.399,208.281 338.269,207.300 338.665 M252.823 349.700 C 252.291 350.855,251.554 352.160,251.184 352.600 C 248.625 355.642,249.275 356.400,254.447 356.400 C 259.696 356.400,260.091 356.084,258.398 353.243 C 257.794 352.229,256.820 350.545,256.233 349.500 C 254.825 346.993,254.047 347.039,252.823 349.700 M156.675 354.658 C 156.524 354.810,156.400 355.248,156.400 355.633 C 156.400 356.018,156.225 356.393,156.012 356.467 C 155.798 356.540,155.556 357.040,155.475 357.579 C 155.393 358.117,155.118 358.627,154.863 358.712 C 154.609 358.797,154.400 359.580,154.400 360.452 L 154.400 362.037 157.100 361.918 C 159.714 361.804,159.804 361.765,159.927 360.700 C 159.996 360.095,159.875 359.600,159.658 359.600 C 159.441 359.600,159.145 359.058,158.999 358.397 C 158.854 357.735,158.581 357.288,158.392 357.405 C 158.204 357.521,157.993 356.952,157.925 356.139 C 157.805 354.724,157.258 354.075,156.675 354.658 M152.386 368.888 C 152.378 368.949,152.333 380.610,152.286 394.800 L 152.200 420.600 157.110 420.600 L 162.020 420.600 162.027 394.800 L 162.034 369.000 157.217 368.888 C 154.568 368.826,152.394 368.826,152.386 368.888 M251.071 374.100 C 251.516 374.595,252.010 375.228,252.169 375.507 C 252.590 376.250,251.041 378.519,248.916 380.271 C 247.896 381.112,246.164 382.660,245.067 383.712 C 243.970 384.763,242.265 386.293,241.277 387.112 C 240.290 387.930,239.251 388.825,238.969 389.100 C 238.688 389.375,238.347 389.600,238.211 389.600 C 238.076 389.600,236.895 390.635,235.587 391.900 C 229.920 397.381,226.145 399.102,224.400 397.000 C 224.126 396.670,223.294 396.400,222.551 396.400 C 221.808 396.400,221.200 396.223,221.200 396.008 C 221.200 395.792,220.750 395.502,220.200 395.364 C 219.650 395.226,219.200 394.953,219.200 394.757 C 219.200 394.560,218.654 394.400,217.987 394.400 C 217.279 394.400,216.679 394.151,216.545 393.800 C 216.418 393.470,215.897 393.200,215.386 393.200 C 214.875 393.200,214.176 392.919,213.833 392.575 C 213.489 392.232,212.801 391.923,212.304 391.890 C 211.807 391.856,211.200 391.635,210.955 391.399 C 210.409 390.870,205.206 391.034,204.642 391.598 C 204.421 391.819,203.845 392.000,203.363 392.000 C 202.880 392.000,202.382 392.270,202.255 392.600 C 202.110 392.979,201.497 393.200,200.589 393.200 C 199.799 393.200,199.252 393.361,199.374 393.558 C 199.660 394.021,198.655 394.400,197.144 394.400 C 196.452 394.400,196.056 394.568,196.200 394.800 C 196.336 395.020,196.212 395.214,195.924 395.231 C 194.680 395.303,193.860 395.579,193.592 396.013 C 193.433 396.270,192.638 396.480,191.824 396.480 C 190.925 396.480,190.260 396.700,190.129 397.040 C 189.787 397.932,185.153 397.805,184.363 396.882 C 183.018 395.312,183.074 395.021,185.208 392.500 C 185.441 392.225,186.074 392.000,186.616 392.000 C 187.157 392.000,187.600 391.820,187.600 391.600 C 187.600 391.380,187.947 391.200,188.371 391.200 C 188.796 391.200,189.413 390.930,189.743 390.600 C 190.073 390.270,190.966 390.000,191.729 390.000 C 192.591 390.000,193.201 389.774,193.345 389.400 C 193.490 389.021,194.103 388.800,195.011 388.800 C 195.801 388.800,196.348 388.639,196.226 388.442 C 195.971 388.029,196.904 387.600,198.056 387.600 C 198.491 387.600,198.748 387.439,198.626 387.242 C 198.329 386.761,199.362 386.400,201.033 386.400 C 201.785 386.400,202.400 386.220,202.400 386.000 C 202.400 385.780,202.747 385.600,203.171 385.600 C 203.596 385.600,204.213 385.330,204.543 385.000 C 204.978 384.565,206.038 384.400,208.400 384.400 C 210.762 384.400,211.822 384.565,212.257 385.000 C 212.587 385.330,213.215 385.600,213.652 385.600 C 214.089 385.600,214.336 385.780,214.200 386.000 C 214.056 386.233,214.453 386.400,215.148 386.400 C 215.805 386.400,216.582 386.640,216.875 386.933 C 217.168 387.225,217.909 387.591,218.520 387.744 C 219.132 387.898,219.525 388.198,219.393 388.412 C 219.255 388.635,219.758 388.800,220.576 388.800 C 221.575 388.800,222.000 388.979,222.000 389.400 C 222.000 389.803,222.403 390.000,223.229 390.000 C 223.904 390.000,224.727 390.270,225.057 390.600 C 225.973 391.515,227.047 391.323,228.400 390.000 C 229.075 389.340,229.801 388.800,230.014 388.800 C 230.226 388.800,230.400 388.632,230.400 388.427 C 230.400 388.222,230.715 387.951,231.100 387.825 C 231.485 387.698,233.574 385.886,235.742 383.798 C 237.910 381.709,239.815 380.000,239.974 380.000 C 240.323 380.000,245.001 375.844,246.389 374.300 C 247.673 372.872,249.880 372.778,251.071 374.100 M152.162 428.154 C 152.045 428.459,152.006 429.494,152.075 430.454 L 152.200 432.200 156.968 432.313 C 162.185 432.437,162.383 432.358,162.394 430.133 C 162.406 427.616,162.373 427.600,157.145 427.600 C 153.449 427.600,152.327 427.725,152.162 428.154 " stroke="none" fill="#cb92d8" fill-rule="evenodd"></path><path id="path2" d="M124.798 311.700 C 124.794 312.800,124.792 402.234,124.796 402.687 C 124.798 402.956,125.069 403.072,125.398 402.946 C 125.726 402.819,125.877 402.524,125.731 402.289 C 125.449 401.832,125.425 312.442,125.707 312.159 C 125.800 312.067,159.023 311.994,199.538 311.998 C 248.639 312.002,273.200 311.870,273.200 311.602 C 273.200 311.334,248.458 311.200,199.000 311.200 C 139.908 311.200,124.800 311.302,124.798 311.700 M274.000 311.520 C 274.000 311.696,274.182 312.022,274.403 312.243 C 274.814 312.654,274.811 401.168,274.400 402.400 C 274.281 402.756,274.444 403.000,274.800 403.000 C 275.329 403.000,275.412 397.588,275.502 357.100 C 275.603 311.401,275.600 311.200,274.802 311.200 C 274.361 311.200,274.000 311.344,274.000 311.520 M217.911 322.693 C 218.851 322.778,220.291 322.777,221.111 322.691 C 221.930 322.605,221.160 322.536,219.400 322.537 C 217.640 322.539,216.970 322.609,217.911 322.693 M201.412 327.317 C 201.241 327.712,201.213 328.147,201.351 328.284 C 201.757 328.690,202.084 328.120,201.897 327.331 C 201.732 326.633,201.710 326.632,201.412 327.317 M133.091 329.489 C 133.801 329.577,135.061 329.579,135.891 329.492 C 136.721 329.405,136.140 329.333,134.600 329.331 C 133.060 329.329,132.381 329.400,133.091 329.489 M155.123 329.499 C 157.831 329.568,162.151 329.568,164.723 329.499 C 167.295 329.429,165.080 329.372,159.800 329.373 C 154.520 329.373,152.415 329.430,155.123 329.499 M200.267 330.267 C 199.852 330.682,199.953 332.000,200.400 332.000 C 200.620 332.000,200.800 331.550,200.800 331.000 C 200.800 329.953,200.708 329.826,200.267 330.267 M178.000 354.400 C 178.000 367.396,178.135 373.964,178.400 373.800 C 178.658 373.641,178.800 366.737,178.800 354.400 C 178.800 342.063,178.658 335.159,178.400 335.000 C 178.135 334.836,178.000 341.404,178.000 354.400 M132.600 336.000 C 132.759 336.258,139.671 336.400,152.024 336.400 C 164.541 336.400,171.200 336.261,171.200 336.000 C 171.200 335.739,164.459 335.600,151.776 335.600 C 138.929 335.600,132.436 335.735,132.600 336.000 M254.100 338.276 C 254.485 338.376,255.115 338.376,255.500 338.276 C 255.885 338.175,255.570 338.093,254.800 338.093 C 254.030 338.093,253.715 338.175,254.100 338.276 M215.873 339.100 C 215.778 339.265,215.711 341.169,215.725 343.330 C 215.743 346.299,215.612 347.346,215.186 347.608 C 214.474 348.049,214.957 348.579,215.783 348.262 C 216.290 348.067,216.400 347.201,216.400 343.413 C 216.400 339.103,216.308 338.350,215.873 339.100 M200.000 339.776 C 200.000 340.093,200.180 340.464,200.400 340.600 C 200.620 340.736,200.800 340.477,200.800 340.024 C 200.800 339.571,200.620 339.200,200.400 339.200 C 200.180 339.200,200.000 339.459,200.000 339.776 M222.800 348.000 C 222.800 348.220,223.070 348.400,223.400 348.400 C 223.730 348.400,224.000 348.220,224.000 348.000 C 224.000 347.780,223.730 347.600,223.400 347.600 C 223.070 347.600,222.800 347.780,222.800 348.000 M161.454 349.113 C 161.343 349.292,161.396 349.670,161.571 349.953 C 161.819 350.354,161.941 350.331,162.127 349.846 C 162.379 349.190,161.798 348.557,161.454 349.113 M150.178 353.235 C 150.031 353.474,150.110 353.870,150.355 354.115 C 150.682 354.442,150.800 354.326,150.800 353.680 C 150.800 352.714,150.592 352.565,150.178 353.235 M163.600 354.600 C 163.600 354.930,163.780 355.200,164.000 355.200 C 164.220 355.200,164.400 354.930,164.400 354.600 C 164.400 354.270,164.220 354.000,164.000 354.000 C 163.780 354.000,163.600 354.270,163.600 354.600 M215.600 362.171 C 215.600 369.227,215.536 369.960,214.900 370.145 C 214.496 370.262,214.622 370.317,215.200 370.274 L 216.200 370.200 216.308 362.300 C 216.380 357.120,216.276 354.400,216.008 354.400 C 215.745 354.400,215.600 357.150,215.600 362.171 M259.025 355.921 C 258.881 356.376,258.456 356.829,258.081 356.928 C 257.667 357.037,257.815 357.125,258.457 357.154 C 259.583 357.203,260.134 356.463,259.607 355.611 C 259.371 355.230,259.219 355.311,259.025 355.921 M250.151 356.879 C 250.042 357.056,251.538 357.179,253.476 357.154 C 257.389 357.102,257.226 356.918,253.075 356.701 C 251.576 356.623,250.260 356.703,250.151 356.879 M153.600 361.200 C 153.600 361.640,153.780 362.000,154.000 362.000 C 154.220 362.000,154.400 361.640,154.400 361.200 C 154.400 360.760,154.220 360.400,154.000 360.400 C 153.780 360.400,153.600 360.760,153.600 361.200 M242.545 362.711 C 242.754 363.050,250.377 362.956,250.722 362.611 C 250.838 362.495,249.003 362.400,246.643 362.400 C 244.283 362.400,242.439 362.540,242.545 362.711 M255.505 362.683 C 256.002 362.779,256.722 362.775,257.105 362.675 C 257.487 362.575,257.080 362.496,256.200 362.501 C 255.320 362.505,255.007 362.587,255.505 362.683 M264.533 362.889 C 265.624 363.178,266.194 363.166,266.513 362.847 C 266.842 362.518,266.440 362.411,264.980 362.441 L 263.000 362.483 264.533 362.889 M145.600 365.000 C 145.600 365.550,145.780 366.000,146.000 366.000 C 146.220 366.000,146.400 365.550,146.400 365.000 C 146.400 364.450,146.220 364.000,146.000 364.000 C 145.780 364.000,145.600 364.450,145.600 365.000 M152.200 368.400 C 152.342 368.631,154.471 368.800,157.224 368.800 C 160.141 368.800,162.000 368.644,162.000 368.400 C 162.000 368.155,160.059 368.000,156.976 368.000 C 153.729 368.000,152.040 368.141,152.200 368.400 M151.697 395.057 C 151.610 418.871,151.663 421.539,152.233 421.757 C 153.715 422.326,162.000 422.023,162.000 421.400 C 162.000 420.899,161.178 420.800,157.003 420.800 L 152.006 420.800 151.900 394.700 L 151.794 368.600 151.697 395.057 M204.800 384.800 C 204.800 385.020,205.160 385.200,205.600 385.200 C 206.040 385.200,206.400 385.020,206.400 384.800 C 206.400 384.580,206.040 384.400,205.600 384.400 C 205.160 384.400,204.800 384.580,204.800 384.800 M210.400 384.800 C 210.400 385.020,210.760 385.200,211.200 385.200 C 211.640 385.200,212.000 385.020,212.000 384.800 C 212.000 384.580,211.640 384.400,211.200 384.400 C 210.760 384.400,210.400 384.580,210.400 384.800 M198.800 386.800 C 198.350 387.091,198.550 387.188,199.600 387.188 C 200.650 387.188,200.850 387.091,200.400 386.800 C 200.070 386.587,199.710 386.412,199.600 386.412 C 199.490 386.412,199.130 386.587,198.800 386.800 M207.398 390.403 C 207.081 390.917,208.204 391.361,209.025 391.046 C 209.827 390.738,209.385 390.000,208.400 390.000 C 207.986 390.000,207.535 390.181,207.398 390.403 M198.000 394.000 C 198.000 394.501,198.424 394.501,199.200 394.000 C 199.685 393.686,199.628 393.611,198.900 393.606 C 198.405 393.603,198.000 393.780,198.000 394.000 M183.508 394.473 C 183.400 394.763,183.439 395.360,183.596 395.800 C 183.868 396.562,183.896 396.555,184.181 395.660 C 184.498 394.661,183.861 393.535,183.508 394.473 M192.200 396.000 C 192.064 396.220,192.323 396.400,192.776 396.400 C 193.229 396.400,193.600 396.220,193.600 396.000 C 193.600 395.780,193.341 395.600,193.024 395.600 C 192.707 395.600,192.336 395.780,192.200 396.000 M221.200 396.000 C 221.200 396.220,221.560 396.400,222.000 396.400 C 222.440 396.400,222.800 396.220,222.800 396.000 C 222.800 395.780,222.440 395.600,222.000 395.600 C 221.560 395.600,221.200 395.780,221.200 396.000 M168.000 402.633 C 168.000 402.982,168.214 403.195,168.475 403.108 C 169.217 402.861,169.340 402.000,168.633 402.000 C 168.285 402.000,168.000 402.285,168.000 402.633 " stroke="none" fill="#9f72a6" fill-rule="evenodd"></path><path id="path3" d="M124.538 311.417 C 124.408 311.757,124.413 312.147,124.551 312.284 C 124.688 312.421,124.800 312.232,124.800 311.864 C 124.800 311.240,129.956 311.195,200.200 311.203 L 275.600 311.212 275.600 356.926 C 275.600 392.962,275.494 402.747,275.100 403.144 C 274.699 403.547,274.731 403.598,275.261 403.396 C 275.624 403.258,276.026 402.752,276.155 402.272 C 276.571 400.721,276.430 312.931,276.010 311.826 L 275.620 310.800 200.197 310.800 C 132.587 310.800,124.750 310.864,124.538 311.417 M124.593 357.200 C 124.593 381.510,124.641 391.455,124.700 379.300 C 124.759 367.145,124.759 347.255,124.700 335.100 C 124.641 322.945,124.593 332.890,124.593 357.200 M215.200 316.488 C 212.973 317.149,214.429 317.282,216.830 316.636 C 218.407 316.212,218.672 316.055,217.800 316.062 C 217.140 316.068,215.970 316.259,215.200 316.488 M221.800 316.580 C 223.601 317.264,225.175 317.407,224.580 316.833 C 224.371 316.631,223.300 316.355,222.200 316.219 L 220.200 315.972 221.800 316.580 M211.376 317.787 C 210.889 318.156,210.797 318.379,211.129 318.387 C 211.419 318.394,211.927 318.130,212.257 317.800 C 213.028 317.029,212.391 317.020,211.376 317.787 M230.400 319.672 C 230.400 320.042,234.106 323.628,234.294 323.440 C 234.397 323.337,233.953 322.746,233.307 322.126 C 231.453 320.349,230.400 319.460,230.400 319.672 M217.200 321.817 C 216.650 322.122,215.891 322.378,215.512 322.386 C 214.826 322.400,211.600 323.933,211.600 324.246 C 211.600 324.336,212.275 324.120,213.100 323.766 C 216.711 322.213,220.387 321.949,223.836 322.996 C 226.134 323.693,226.458 323.726,225.493 323.164 C 224.792 322.756,221.708 321.904,219.400 321.482 C 218.716 321.357,217.770 321.501,217.200 321.817 M202.998 325.202 C 202.598 325.644,202.366 326.099,202.482 326.215 C 202.597 326.330,202.990 325.969,203.355 325.412 C 204.152 324.196,203.993 324.102,202.998 325.202 M227.800 325.103 C 228.240 325.491,229.185 326.488,229.900 327.318 C 230.615 328.148,231.200 328.721,231.200 328.590 C 231.200 328.118,228.241 324.825,227.628 324.614 C 227.201 324.467,227.256 324.624,227.800 325.103 M235.600 325.927 C 235.600 326.138,235.960 326.736,236.401 327.256 C 237.092 328.070,237.163 328.090,236.923 327.400 C 236.601 326.473,235.600 325.359,235.600 325.927 M236.813 328.824 C 236.806 329.166,237.064 329.796,237.387 330.224 C 237.857 330.844,237.977 330.875,237.987 330.376 C 237.994 330.034,237.736 329.404,237.413 328.976 C 236.943 328.356,236.823 328.325,236.813 328.824 M134.400 329.570 C 130.847 329.842,129.600 330.647,129.600 332.665 C 129.600 333.373,129.738 334.038,129.907 334.143 C 130.076 334.247,130.150 333.654,130.071 332.824 C 129.807 330.059,130.261 330.000,151.796 330.000 C 169.581 330.000,170.436 330.034,171.788 330.793 C 173.345 331.668,173.566 331.554,172.500 330.425 C 171.765 329.646,142.078 328.980,134.400 329.570 M231.200 329.474 C 231.200 329.713,231.486 330.424,231.835 331.054 L 232.469 332.200 232.206 331.000 C 231.938 329.776,231.200 328.657,231.200 329.474 M206.157 331.833 C 206.291 332.181,206.400 332.541,206.400 332.633 C 206.400 332.725,209.595 332.760,213.500 332.711 L 220.600 332.621 214.141 332.501 C 209.043 332.406,207.579 332.256,207.192 331.790 C 206.542 331.007,205.851 331.035,206.157 331.833 M199.600 332.300 C 199.601 332.465,195.353 332.546,190.162 332.479 C 180.444 332.355,178.800 332.587,178.800 334.085 C 178.800 334.341,179.175 334.149,179.633 333.657 C 180.453 332.776,180.610 332.764,189.997 332.821 C 196.143 332.859,199.790 332.728,200.264 332.452 C 200.943 332.058,200.945 332.023,200.300 332.012 C 199.915 332.005,199.600 332.135,199.600 332.300 M221.214 333.851 C 221.252 334.793,222.371 336.223,222.386 335.349 C 222.394 334.881,222.130 334.274,221.800 334.000 C 221.470 333.726,221.206 333.659,221.214 333.851 M131.544 335.304 C 131.711 335.471,140.747 335.561,151.624 335.504 L 171.400 335.400 151.320 335.200 C 140.276 335.090,131.376 335.137,131.544 335.304 M184.647 338.621 C 184.507 338.988,184.576 339.138,184.818 338.989 C 185.322 338.677,199.375 338.739,200.202 339.056 C 200.531 339.182,200.814 339.581,200.832 339.943 C 200.856 340.441,200.917 340.465,201.084 340.042 C 201.207 339.731,200.883 339.158,200.353 338.750 C 199.019 337.725,185.036 337.609,184.647 338.621 M207.199 338.300 C 207.199 338.465,208.834 338.542,210.834 338.471 C 212.834 338.400,214.770 338.473,215.135 338.634 C 215.501 338.795,215.935 338.898,216.100 338.864 C 216.802 338.715,216.431 348.013,215.724 348.285 C 215.347 348.429,214.978 348.335,214.891 348.072 C 214.704 347.513,214.000 347.435,214.000 347.973 C 214.000 348.600,215.602 348.896,216.219 348.384 C 217.212 347.560,217.045 338.960,216.026 338.414 C 215.147 337.943,207.200 337.841,207.199 338.300 M255.669 338.670 C 256.037 338.767,256.637 339.302,257.001 339.858 C 257.366 340.414,257.770 340.763,257.900 340.633 C 258.271 340.262,256.333 338.395,255.630 338.446 C 255.099 338.485,255.105 338.521,255.669 338.670 M231.700 339.701 C 231.025 341.099,230.338 343.427,230.729 342.991 C 231.193 342.474,232.475 339.142,232.284 338.951 C 232.202 338.868,231.939 339.206,231.700 339.701 M252.015 339.382 C 251.296 340.249,250.047 342.800,250.343 342.800 C 250.484 342.799,251.105 341.899,251.723 340.800 C 252.834 338.822,252.951 338.254,252.015 339.382 M237.267 340.675 C 237.010 341.155,236.800 341.883,236.800 342.294 C 236.800 342.704,236.587 343.253,236.327 343.513 C 236.066 343.774,235.963 344.096,236.097 344.231 C 236.231 344.365,236.617 343.940,236.955 343.288 C 237.292 342.635,237.445 341.979,237.296 341.829 C 237.146 341.679,237.265 341.407,237.560 341.225 C 237.856 341.042,238.016 340.647,237.916 340.347 C 237.788 339.964,237.595 340.061,237.267 340.675 M206.892 341.275 C 206.979 341.536,207.264 341.821,207.525 341.908 C 207.818 342.006,207.907 341.823,207.757 341.433 C 207.478 340.706,206.652 340.555,206.892 341.275 M208.000 342.810 C 208.000 343.313,210.996 346.400,211.484 346.400 C 211.604 346.400,210.928 345.545,209.983 344.500 C 209.037 343.455,208.204 342.525,208.132 342.433 C 208.059 342.342,208.000 342.511,208.000 342.810 M155.362 343.800 C 154.723 344.349,154.414 344.799,154.676 344.800 C 154.938 344.800,155.264 344.620,155.400 344.400 C 155.536 344.180,156.166 344.000,156.800 344.000 C 158.111 344.000,158.711 343.405,157.765 343.042 C 156.794 342.669,156.608 342.728,155.362 343.800 M202.400 344.346 C 202.400 344.562,202.850 345.273,203.400 345.927 C 203.950 346.581,204.400 347.238,204.400 347.389 C 204.400 347.707,206.638 350.000,206.949 350.000 C 207.064 350.000,207.630 350.436,208.205 350.970 C 209.148 351.843,211.600 353.012,211.600 352.587 C 211.600 352.493,210.902 352.060,210.049 351.625 C 208.333 350.750,203.200 345.748,203.200 344.952 C 203.200 344.674,203.020 344.336,202.800 344.200 C 202.580 344.064,202.400 344.130,202.400 344.346 M234.194 346.700 C 233.810 347.305,233.115 348.259,232.648 348.819 C 232.182 349.380,232.488 349.110,233.328 348.219 C 235.369 346.057,235.706 345.600,235.262 345.600 C 235.058 345.600,234.578 346.095,234.194 346.700 M160.123 346.967 C 160.205 347.785,161.200 348.379,161.200 347.610 C 161.200 347.358,161.034 347.256,160.830 347.381 C 160.627 347.507,160.367 347.293,160.253 346.905 C 160.078 346.310,160.058 346.320,160.123 346.967 M225.600 347.000 C 225.195 347.488,225.215 347.600,225.708 347.600 C 226.042 347.600,226.418 347.330,226.545 347.000 C 226.671 346.670,226.623 346.400,226.436 346.400 C 226.250 346.400,225.874 346.670,225.600 347.000 M247.309 347.300 C 246.701 348.081,245.579 350.513,245.749 350.682 C 245.832 350.766,246.248 350.241,246.673 349.517 C 247.911 347.406,248.311 346.012,247.309 347.300 M261.200 347.176 C 261.200 347.383,261.374 347.661,261.587 347.792 C 261.800 347.924,262.384 348.925,262.885 350.016 C 263.386 351.107,263.931 352.000,264.098 352.000 C 264.572 352.000,264.490 351.796,262.981 349.221 C 261.599 346.863,261.200 346.405,261.200 347.176 M222.446 347.713 C 222.382 348.708,223.531 349.041,224.317 348.255 C 224.737 347.834,224.798 347.600,224.486 347.600 C 224.219 347.600,224.000 347.780,224.000 348.000 C 224.000 348.691,222.868 348.434,222.676 347.700 C 222.504 347.044,222.490 347.045,222.446 347.713 M152.688 348.533 C 152.242 349.666,152.315 350.245,152.838 349.722 C 153.078 349.482,153.208 348.951,153.126 348.542 C 152.982 347.826,152.966 347.826,152.688 348.533 M161.232 349.851 C 161.214 350.099,161.470 350.526,161.800 350.800 C 162.293 351.209,162.400 351.178,162.400 350.625 C 162.400 350.255,162.235 350.055,162.034 350.179 C 161.833 350.303,161.577 350.179,161.466 349.902 C 161.340 349.589,161.251 349.570,161.232 349.851 M244.872 351.713 C 244.402 352.279,243.532 354.400,243.770 354.400 C 243.852 354.400,244.295 353.680,244.753 352.800 C 245.600 351.175,245.643 350.785,244.872 351.713 M213.300 353.476 C 213.685 353.576,214.000 353.836,214.000 354.053 C 214.000 354.270,214.199 354.324,214.443 354.174 C 214.982 353.840,214.107 353.192,213.200 353.253 C 212.775 353.281,212.804 353.346,213.300 353.476 M224.466 353.550 C 224.039 353.821,224.064 353.939,224.587 354.140 C 224.947 354.278,225.140 354.227,225.016 354.026 C 224.892 353.825,225.107 353.578,225.495 353.477 C 225.989 353.348,226.020 353.281,225.600 353.253 C 225.270 353.230,224.760 353.364,224.466 353.550 M156.300 354.487 C 155.915 354.968,155.611 355.641,155.625 355.981 C 155.641 356.355,155.795 356.240,156.016 355.691 C 156.217 355.191,156.655 354.677,156.990 354.548 C 157.326 354.420,157.600 354.154,157.600 353.957 C 157.600 353.342,157.028 353.575,156.300 354.487 M216.395 362.175 L 216.200 370.150 202.000 370.073 C 194.190 370.031,187.170 370.159,186.400 370.357 C 185.492 370.591,190.520 370.733,200.692 370.759 L 216.385 370.800 216.606 369.900 C 216.728 369.405,216.774 365.670,216.708 361.600 L 216.590 354.200 216.395 362.175 M249.467 354.667 C 248.942 355.191,249.204 357.116,249.833 357.357 C 253.222 358.658,261.095 357.274,259.955 355.578 C 259.620 355.079,259.575 355.082,259.631 355.600 C 259.770 356.903,259.557 357.199,258.500 357.172 C 257.525 357.147,257.491 357.105,258.200 356.800 C 258.709 356.581,257.547 356.472,255.000 356.500 L 251.000 356.544 254.000 356.800 L 257.000 357.056 253.476 357.128 C 251.385 357.171,250.046 357.049,250.183 356.828 C 250.309 356.623,250.247 356.353,250.044 356.227 C 249.841 356.102,249.769 355.639,249.884 355.200 C 250.097 354.384,249.944 354.189,249.467 354.667 M242.028 356.745 C 240.870 359.014,241.001 359.364,242.214 357.243 C 242.767 356.276,243.137 355.404,243.037 355.304 C 242.937 355.204,242.483 355.853,242.028 356.745 M149.600 356.557 C 149.600 356.937,149.420 357.136,149.200 357.000 C 148.980 356.864,148.800 356.943,148.800 357.176 C 148.800 357.409,148.986 357.600,149.213 357.600 C 149.712 357.600,150.199 356.465,149.849 356.116 C 149.712 355.979,149.600 356.177,149.600 356.557 M267.357 357.686 C 268.718 359.984,268.024 361.562,265.400 362.133 C 264.886 362.245,265.039 362.324,265.830 362.354 C 268.540 362.456,269.518 359.742,267.562 357.551 L 266.713 356.600 267.357 357.686 M148.400 358.957 C 148.400 359.337,148.220 359.536,148.000 359.400 C 147.780 359.264,147.600 359.343,147.600 359.576 C 147.600 359.809,147.786 360.000,148.013 360.000 C 148.512 360.000,148.999 358.865,148.649 358.516 C 148.512 358.379,148.400 358.577,148.400 358.957 M165.723 360.167 C 165.805 360.985,166.800 361.579,166.800 360.810 C 166.800 360.558,166.634 360.456,166.430 360.581 C 166.227 360.707,165.967 360.493,165.853 360.105 C 165.678 359.510,165.658 359.520,165.723 360.167 M159.855 361.400 C 159.678 361.861,158.914 362.000,156.546 362.000 C 152.791 362.000,152.872 362.412,156.659 362.571 C 159.392 362.685,160.800 362.254,160.800 361.304 C 160.800 360.604,160.135 360.672,159.855 361.400 M249.800 362.818 C 249.140 362.976,252.275 363.127,256.767 363.153 C 261.258 363.179,264.813 363.080,264.666 362.933 C 264.297 362.564,251.282 362.464,249.800 362.818 M244.900 363.087 C 245.505 363.178,246.495 363.178,247.100 363.087 C 247.705 362.995,247.210 362.920,246.000 362.920 C 244.790 362.920,244.295 362.995,244.900 363.087 M145.553 383.900 C 145.527 393.745,145.534 402.025,145.570 402.300 C 145.606 402.575,145.327 402.800,144.951 402.800 C 144.575 402.800,144.373 402.906,144.503 403.037 C 144.633 403.167,145.113 403.154,145.570 403.010 C 146.502 402.714,146.929 366.000,146.000 366.000 C 145.740 366.000,145.583 372.265,145.553 383.900 M153.800 367.863 C 157.601 368.155,162.311 368.176,162.140 367.900 C 162.037 367.735,159.758 367.631,157.076 367.670 C 154.394 367.708,152.920 367.795,153.800 367.863 M151.456 368.278 C 151.315 368.418,151.200 380.467,151.200 395.053 C 151.200 425.978,150.413 422.444,157.274 422.316 L 161.800 422.231 157.600 422.117 C 155.290 422.054,152.995 421.908,152.500 421.793 L 151.600 421.585 151.600 395.169 C 151.600 377.660,151.735 368.836,152.000 369.000 C 152.220 369.136,152.400 369.067,152.400 368.847 C 152.400 368.324,151.782 367.951,151.456 368.278 M152.178 383.400 C 152.178 390.220,152.232 393.066,152.299 389.725 C 152.366 386.384,152.366 380.804,152.299 377.325 C 152.233 373.846,152.178 376.580,152.178 383.400 M221.516 374.231 L 220.831 375.747 221.654 374.923 C 222.107 374.470,222.415 373.788,222.339 373.407 C 222.243 372.928,221.989 373.181,221.516 374.231 M247.100 373.957 C 246.303 374.765,246.140 375.455,246.900 374.802 C 247.175 374.566,247.760 374.115,248.200 373.799 C 248.782 373.382,248.836 373.228,248.400 373.236 C 248.070 373.243,247.485 373.567,247.100 373.957 M179.200 375.087 C 179.200 375.646,181.063 376.407,182.319 376.360 C 183.200 376.327,183.110 376.252,181.831 375.952 C 180.969 375.749,180.024 375.386,179.731 375.143 C 179.430 374.893,179.200 374.869,179.200 375.087 M244.000 376.731 C 243.010 377.714,242.560 378.270,243.000 377.965 C 244.211 377.127,246.165 375.227,245.971 375.076 C 245.877 375.002,244.990 375.747,244.000 376.731 M251.612 375.876 C 251.605 376.578,251.420 377.264,251.200 377.400 C 250.980 377.536,250.803 377.862,250.807 378.124 C 250.810 378.386,251.183 378.022,251.636 377.316 C 252.263 376.337,252.359 375.863,252.041 375.316 C 251.689 374.711,251.622 374.797,251.612 375.876 M218.200 376.000 L 217.000 376.305 218.476 376.353 C 219.288 376.379,220.064 376.220,220.200 376.000 C 220.477 375.551,219.963 375.551,218.200 376.000 M248.447 380.047 C 247.494 380.927,246.778 381.708,246.857 381.783 C 247.081 381.995,250.591 378.858,250.374 378.640 C 250.267 378.534,249.400 379.167,248.447 380.047 M239.900 380.229 C 239.075 381.011,238.400 381.757,238.400 381.887 C 238.400 382.191,240.098 380.759,240.520 380.100 C 240.696 379.825,241.101 379.600,241.420 379.600 C 241.739 379.600,242.000 379.420,242.000 379.200 C 242.000 378.496,241.437 378.772,239.900 380.229 M243.600 384.413 C 242.830 385.068,241.570 386.141,240.800 386.798 C 240.030 387.456,239.624 387.995,239.897 387.997 C 240.170 387.999,241.520 386.925,242.897 385.611 C 245.554 383.076,245.932 382.431,243.600 384.413 M232.500 386.772 C 231.125 388.060,230.000 389.230,230.000 389.373 C 230.000 389.516,230.675 389.017,231.500 388.265 C 232.325 387.513,233.625 386.335,234.389 385.649 C 235.153 384.962,235.603 384.407,235.389 384.415 C 235.175 384.423,233.875 385.484,232.500 386.772 M200.370 386.773 C 200.805 387.049,200.687 387.176,199.865 387.315 L 198.790 387.497 199.864 387.449 C 201.059 387.395,201.700 386.396,200.533 386.406 C 199.943 386.411,199.911 386.482,200.370 386.773 M215.298 386.900 C 215.389 387.175,215.809 387.418,216.231 387.439 C 216.869 387.472,216.880 387.450,216.294 387.311 C 215.906 387.218,215.691 386.976,215.818 386.771 C 215.944 386.567,215.842 386.400,215.590 386.400 C 215.339 386.400,215.207 386.625,215.298 386.900 M228.576 390.040 C 228.426 390.281,227.741 390.724,227.052 391.024 C 226.127 391.426,226.009 391.572,226.600 391.582 C 227.040 391.590,227.940 391.153,228.600 390.612 C 229.260 390.071,229.586 389.622,229.324 389.614 C 229.062 389.606,228.725 389.798,228.576 390.040 M206.678 390.256 C 206.379 390.555,206.706 391.200,207.157 391.200 C 207.327 391.200,207.467 390.930,207.467 390.600 C 207.467 389.973,207.114 389.819,206.678 390.256 M185.000 392.857 L 184.200 393.667 185.300 393.169 C 185.905 392.896,186.400 392.520,186.400 392.336 C 186.400 391.789,185.854 391.993,185.000 392.857 M233.384 393.321 C 232.495 394.024,231.235 395.120,230.584 395.756 L 229.400 396.912 230.800 395.972 C 232.188 395.041,235.584 391.994,235.200 392.025 C 235.090 392.034,234.273 392.617,233.384 393.321 M184.000 395.924 C 184.000 396.508,185.129 397.805,185.401 397.533 C 185.547 397.386,185.292 396.892,184.833 396.433 C 184.375 395.975,184.000 395.746,184.000 395.924 M152.157 413.200 C 152.157 416.170,152.220 417.385,152.297 415.900 C 152.374 414.415,152.374 411.985,152.297 410.500 C 152.220 409.015,152.157 410.230,152.157 413.200 M151.467 428.267 C 150.936 428.798,151.200 431.943,151.829 432.571 C 152.506 433.249,161.349 433.530,161.747 432.886 C 161.854 432.713,159.889 432.559,157.380 432.543 C 152.001 432.509,151.570 432.296,151.760 429.763 C 151.899 427.902,151.888 427.845,151.467 428.267 " stroke="none" fill="#bab2bd" fill-rule="evenodd"></path><path id="path4" d="M125.217 310.472 C 124.813 310.622,124.360 310.941,124.211 311.183 C 123.840 311.782,123.782 402.524,124.152 403.122 C 124.575 403.806,145.636 403.804,146.320 403.120 C 146.680 402.760,146.800 397.780,146.800 383.169 C 146.800 366.349,146.882 363.630,147.400 363.200 C 147.730 362.926,148.000 362.398,148.000 362.027 C 148.000 361.656,148.264 361.004,148.587 360.576 C 148.910 360.149,149.180 359.472,149.187 359.071 C 149.194 358.671,149.470 358.073,149.800 357.743 C 150.130 357.413,150.400 356.806,150.400 356.395 C 150.400 355.984,150.580 355.536,150.800 355.400 C 151.020 355.264,151.200 354.859,151.200 354.500 C 151.200 353.952,151.105 353.972,150.613 354.624 C 150.290 355.051,150.020 355.811,150.013 356.313 C 150.006 356.814,149.730 357.329,149.400 357.455 C 149.070 357.582,148.800 358.122,148.800 358.655 C 148.800 359.189,148.530 359.729,148.200 359.855 C 147.856 359.987,147.600 360.585,147.600 361.255 C 147.600 361.926,147.344 362.523,147.000 362.655 C 146.478 362.856,146.400 365.467,146.400 382.800 C 146.400 400.590,146.333 402.740,145.767 402.957 C 145.419 403.091,140.469 403.200,134.766 403.200 L 124.397 403.200 124.498 357.100 L 124.600 311.000 200.110 310.899 L 275.619 310.798 276.015 311.838 C 276.735 313.732,276.331 402.747,275.600 403.209 C 275.270 403.417,275.189 403.591,275.420 403.594 C 276.792 403.614,276.800 403.351,276.800 357.182 C 276.800 313.730,276.768 311.695,276.072 311.065 C 275.311 310.376,127.051 309.794,125.217 310.472 M217.000 316.609 C 215.900 316.915,214.518 317.173,213.929 317.182 C 213.339 317.192,212.587 317.470,212.257 317.800 C 211.927 318.130,211.369 318.400,211.016 318.400 C 210.663 318.400,210.271 318.670,210.145 319.000 C 210.018 319.330,209.613 319.600,209.245 319.600 C 207.736 319.600,202.866 325.245,202.257 327.700 C 202.107 328.305,201.808 328.800,201.592 328.800 C 201.377 328.800,201.214 329.385,201.232 330.100 C 201.249 330.815,201.350 331.130,201.457 330.800 C 203.091 325.744,209.064 318.800,211.778 318.800 C 212.084 318.800,212.397 318.610,212.474 318.378 C 212.961 316.918,225.296 316.826,226.360 318.274 C 226.492 318.453,227.474 319.050,228.543 319.600 C 229.612 320.150,231.637 321.837,233.043 323.349 C 234.449 324.860,235.600 325.895,235.600 325.649 C 235.600 325.402,235.420 325.200,235.200 325.200 C 234.980 325.200,234.800 324.994,234.800 324.741 C 234.800 324.120,230.328 319.619,229.700 319.608 C 229.425 319.604,229.200 319.423,229.200 319.208 C 229.200 318.992,228.707 318.691,228.104 318.540 C 227.501 318.389,226.768 318.025,226.475 317.733 C 226.182 317.440,225.371 317.197,224.671 317.194 C 223.972 317.191,222.680 316.929,221.800 316.612 C 219.849 315.909,219.524 315.908,217.000 316.609 M216.654 321.377 C 216.024 321.720,215.166 322.000,214.746 322.000 C 213.122 322.000,207.600 326.449,207.600 327.757 C 207.600 328.064,207.330 328.418,207.000 328.545 C 206.670 328.671,206.400 329.105,206.400 329.507 C 206.400 329.910,206.205 330.435,205.966 330.674 C 205.728 330.912,205.593 331.533,205.666 332.054 L 205.800 333.000 213.200 333.223 C 217.270 333.346,220.625 333.481,220.657 333.523 C 220.993 333.981,221.173 336.359,221.236 341.200 C 221.312 347.035,221.601 348.561,222.711 348.987 C 223.455 349.273,224.800 348.878,224.800 348.373 C 224.800 348.168,225.144 348.000,225.564 348.000 C 225.984 348.000,227.401 346.965,228.713 345.700 C 230.931 343.560,231.428 342.858,232.831 339.877 C 233.531 338.391,233.526 332.394,232.824 330.923 C 232.529 330.305,231.998 329.205,231.644 328.479 C 230.877 326.906,227.346 323.200,226.613 323.200 C 226.330 323.200,225.874 322.930,225.600 322.600 C 225.326 322.270,224.620 322.000,224.031 322.000 C 223.442 322.000,222.770 321.810,222.537 321.577 C 221.781 320.821,217.918 320.690,216.654 321.377 M222.672 322.222 C 233.052 324.827,236.344 338.619,228.240 345.550 C 227.822 345.907,227.147 346.515,226.740 346.900 C 226.333 347.285,225.789 347.600,225.531 347.600 C 225.274 347.600,224.741 347.892,224.346 348.249 C 222.703 349.736,222.400 348.836,222.400 342.463 C 222.400 337.326,222.287 336.246,221.581 334.651 L 220.763 332.800 213.624 332.800 C 207.224 332.800,206.458 332.728,206.220 332.108 C 206.074 331.727,206.145 331.352,206.377 331.274 C 206.610 331.197,206.800 330.720,206.800 330.216 C 206.800 329.711,207.070 329.074,207.400 328.800 C 207.730 328.526,208.000 328.132,208.000 327.924 C 208.000 326.717,213.828 322.421,215.512 322.386 C 215.891 322.378,216.650 322.122,217.200 321.817 C 218.229 321.246,219.017 321.304,222.672 322.222 M235.600 326.932 C 235.600 327.273,235.780 327.664,236.000 327.800 C 236.220 327.936,236.400 328.447,236.400 328.935 C 236.400 329.423,236.660 330.193,236.977 330.646 C 237.294 331.098,237.621 332.444,237.703 333.635 L 237.852 335.800 237.926 333.486 C 237.976 331.927,237.790 330.851,237.356 330.189 C 237.002 329.648,236.801 328.974,236.910 328.690 C 237.019 328.406,236.769 327.755,236.354 327.243 C 235.806 326.566,235.600 326.481,235.600 326.932 M131.500 330.663 C 130.191 331.206,130.000 331.455,130.000 332.620 C 130.000 335.259,129.503 335.200,151.673 335.200 L 171.568 335.200 172.584 334.104 C 174.067 332.505,173.863 331.930,171.305 330.500 C 169.839 329.680,133.511 329.829,131.500 330.663 M171.994 331.594 C 172.961 332.561,172.427 334.222,171.050 334.526 C 167.692 335.266,131.974 334.552,131.150 333.728 C 130.150 332.727,130.360 331.750,131.691 331.216 C 133.788 330.373,171.124 330.724,171.994 331.594 M200.230 332.452 C 199.807 332.863,199.649 333.200,199.881 333.200 C 200.343 333.200,201.409 332.065,201.157 331.842 C 201.071 331.766,200.654 332.040,200.230 332.452 M179.616 333.675 C 178.817 334.532,178.800 334.976,178.800 354.630 L 178.800 374.709 180.300 375.454 C 182.237 376.417,214.922 376.787,218.800 375.891 C 222.247 375.093,222.390 374.600,222.349 363.662 C 222.326 357.623,222.459 354.581,222.758 354.282 C 223.001 354.039,223.200 353.976,223.200 354.143 C 223.200 354.309,223.600 354.165,224.089 353.823 C 224.578 353.480,225.373 353.200,225.856 353.200 C 226.338 353.200,226.793 353.065,226.867 352.900 C 226.940 352.735,227.720 352.247,228.600 351.816 C 231.744 350.275,236.800 344.242,236.800 342.031 C 236.800 341.658,237.064 341.004,237.387 340.576 C 237.745 340.103,237.952 339.020,237.917 337.800 L 237.860 335.800 237.704 337.570 C 237.618 338.544,237.289 339.709,236.974 340.159 C 236.658 340.610,236.400 341.270,236.400 341.628 C 236.400 345.202,229.684 351.427,223.811 353.295 C 221.324 354.086,221.213 354.582,221.200 365.000 C 221.193 370.086,221.018 374.468,220.809 374.800 C 220.150 375.842,181.202 375.687,180.042 374.638 C 178.845 373.555,178.721 335.643,179.909 334.106 C 180.584 333.234,180.817 333.210,189.800 333.098 L 199.000 332.984 189.716 332.892 C 180.621 332.802,180.414 332.818,179.616 333.675 M184.096 338.395 C 183.476 339.387,183.379 368.566,183.990 370.174 L 184.380 371.200 200.310 371.200 C 212.167 371.200,216.363 371.077,216.720 370.720 C 217.061 370.379,217.200 367.952,217.200 362.343 C 217.200 353.938,217.015 353.200,214.903 353.200 C 212.266 353.200,204.916 347.451,203.359 344.171 C 202.994 343.401,202.605 342.861,202.495 342.971 C 201.651 343.816,207.204 350.174,210.058 351.630 C 210.906 352.062,211.600 352.593,211.600 352.808 C 211.600 353.024,212.127 353.200,212.771 353.200 C 213.416 353.200,214.216 353.473,214.550 353.807 C 214.884 354.141,215.302 354.390,215.479 354.360 C 216.753 354.144,216.800 354.419,216.794 362.100 C 216.791 366.335,216.644 370.027,216.467 370.305 C 216.216 370.700,212.727 370.787,200.373 370.705 L 184.600 370.600 184.489 355.200 C 184.427 346.730,184.476 339.395,184.596 338.900 C 184.888 337.701,198.436 337.481,200.214 338.646 C 201.332 339.379,201.571 338.970,200.500 338.157 C 199.210 337.178,184.725 337.388,184.096 338.395 M205.986 338.426 C 205.709 338.944,205.683 339.428,205.917 339.726 C 206.122 339.987,206.408 340.695,206.552 341.300 C 206.697 341.905,206.992 342.400,207.208 342.400 C 207.423 342.400,207.600 342.657,207.600 342.972 C 207.600 344.819,214.609 349.598,216.233 348.858 C 217.348 348.350,217.765 339.125,216.720 338.080 C 215.782 337.142,206.514 337.440,205.986 338.426 M216.026 338.414 C 217.045 338.960,217.212 347.560,216.219 348.384 C 215.602 348.896,214.000 348.600,214.000 347.973 C 214.000 347.768,213.724 347.600,213.387 347.600 C 213.051 347.600,212.671 347.330,212.545 347.000 C 212.418 346.670,212.079 346.400,211.791 346.400 C 211.026 346.400,208.000 343.462,208.000 342.720 C 208.000 342.371,207.730 341.982,207.400 341.855 C 207.070 341.729,206.800 341.169,206.800 340.613 C 206.800 340.056,206.620 339.600,206.400 339.600 C 206.180 339.600,206.315 339.255,206.700 338.833 C 207.502 337.955,214.574 337.637,216.026 338.414 M253.161 338.875 C 252.810 339.164,252.100 340.120,251.582 341.000 C 251.065 341.880,250.543 342.690,250.421 342.800 C 250.300 342.910,249.840 343.720,249.401 344.600 C 248.961 345.480,248.376 346.438,248.101 346.729 C 247.825 347.019,247.600 347.421,247.600 347.622 C 247.600 347.920,246.065 350.647,244.009 354.000 C 239.039 362.108,239.153 362.200,254.155 362.200 C 267.120 362.200,268.000 362.058,268.000 359.965 C 268.000 358.868,267.049 356.727,266.100 355.690 C 265.825 355.389,265.600 354.886,265.600 354.571 C 265.600 354.257,265.420 354.000,265.200 354.000 C 264.980 354.000,264.800 353.743,264.800 353.429 C 264.800 353.114,264.572 352.619,264.292 352.329 C 263.760 351.774,262.241 349.047,260.768 346.000 C 260.289 345.010,259.786 344.110,259.649 344.000 C 259.332 343.746,258.511 342.436,258.017 341.400 C 256.871 338.993,254.511 337.766,253.161 338.875 M256.423 340.089 C 257.070 340.798,257.600 341.595,257.600 341.861 C 257.600 342.126,257.833 342.581,258.117 342.871 C 258.569 343.333,260.341 346.353,262.418 350.200 C 264.022 353.171,264.634 354.201,265.100 354.710 C 265.375 355.011,265.600 355.428,265.600 355.637 C 265.600 355.845,266.050 356.729,266.600 357.600 C 269.035 361.457,268.439 361.644,254.209 361.510 L 242.619 361.400 242.265 360.393 C 241.909 359.379,242.372 357.896,243.762 355.600 C 245.955 351.979,250.400 343.949,250.400 343.610 C 250.400 343.384,250.548 343.200,250.729 343.200 C 250.910 343.200,251.461 342.393,251.954 341.406 C 253.412 338.488,254.632 338.128,256.423 340.089 M201.246 340.657 C 201.218 341.439,201.427 342.001,201.800 342.145 C 202.465 342.400,202.599 341.970,202.039 341.380 C 201.840 341.171,201.591 340.640,201.485 340.200 C 201.357 339.665,201.277 339.817,201.246 340.657 M155.100 344.557 C 154.715 344.849,154.400 345.361,154.400 345.695 C 154.400 346.029,154.130 346.526,153.800 346.800 C 153.470 347.074,153.200 347.794,153.200 348.400 C 153.200 349.006,152.930 349.726,152.600 350.000 C 152.270 350.274,152.000 350.825,152.000 351.225 C 152.000 351.625,151.820 352.064,151.600 352.200 C 151.380 352.336,151.200 352.741,151.200 353.100 C 151.200 354.003,152.369 352.475,152.387 351.549 C 152.394 351.191,152.670 350.674,153.000 350.400 C 153.330 350.126,153.600 349.592,153.600 349.212 C 153.600 347.193,155.720 344.400,157.252 344.400 C 158.211 344.400,158.508 344.685,159.236 346.300 C 159.706 347.345,160.538 349.190,161.085 350.400 C 162.904 354.428,163.200 355.119,163.200 355.336 C 163.200 355.455,163.735 356.688,164.388 358.076 C 165.191 359.781,165.580 360.299,165.588 359.671 C 165.595 359.161,165.330 358.473,165.000 358.143 C 164.670 357.813,164.400 357.206,164.400 356.795 C 164.400 356.384,164.220 355.936,164.000 355.800 C 163.780 355.664,163.600 355.108,163.600 354.564 C 163.600 354.020,163.330 353.471,163.000 353.345 C 162.670 353.218,162.400 352.706,162.400 352.206 C 162.400 351.707,162.130 351.074,161.800 350.800 C 161.470 350.526,161.200 349.803,161.200 349.194 C 161.200 348.578,160.934 347.983,160.600 347.855 C 160.270 347.729,160.000 347.332,160.000 346.974 C 160.000 344.714,156.905 343.187,155.100 344.557 M252.187 349.400 C 251.326 351.050,250.483 352.400,250.311 352.400 C 250.140 352.400,250.000 352.741,250.000 353.157 C 250.000 353.574,249.730 354.018,249.400 354.145 C 249.008 354.295,248.800 354.918,248.800 355.941 C 248.800 357.890,249.090 357.987,254.926 357.995 C 261.176 358.002,261.763 357.475,259.592 353.800 C 258.942 352.700,258.288 351.530,258.137 351.200 C 255.695 345.836,254.270 345.405,252.187 349.400 M256.400 349.561 C 256.400 349.748,256.670 350.126,257.000 350.400 C 257.330 350.674,257.600 351.217,257.600 351.606 C 257.600 351.996,257.870 352.418,258.200 352.545 C 258.530 352.671,258.800 353.141,258.800 353.587 C 258.800 354.034,258.951 354.400,259.136 354.400 C 259.760 354.400,260.336 356.214,259.938 356.926 C 259.551 357.616,251.413 357.964,249.833 357.357 C 249.063 357.062,248.981 354.974,249.722 354.520 C 250.008 354.344,250.553 353.533,250.932 352.717 C 251.311 351.901,251.797 351.126,252.011 350.993 C 252.225 350.861,252.400 350.444,252.400 350.066 C 252.400 349.688,252.953 348.772,253.630 348.032 L 254.859 346.686 255.630 347.953 C 256.053 348.649,256.400 349.373,256.400 349.561 M155.887 354.500 C 151.843 362.723,151.883 363.200,156.618 363.200 C 161.411 363.200,162.051 362.443,160.200 358.962 C 159.650 357.927,159.200 356.758,159.200 356.364 C 159.200 355.970,159.009 355.529,158.775 355.385 C 158.542 355.240,158.186 354.690,157.985 354.161 C 157.478 352.826,156.643 352.961,155.887 354.500 M158.100 355.141 C 158.485 355.978,158.800 356.976,158.800 357.360 C 158.800 357.743,159.070 358.327,159.400 358.657 C 159.730 358.987,160.000 359.604,160.000 360.029 C 160.000 360.453,160.180 360.800,160.400 360.800 C 161.056 360.800,160.853 361.775,160.100 362.239 C 159.525 362.594,157.583 362.656,154.143 362.430 C 153.375 362.380,153.233 361.359,153.832 360.204 C 154.144 359.602,154.400 358.853,154.400 358.542 C 154.400 358.230,154.670 357.871,155.000 357.745 C 155.330 357.618,155.600 357.030,155.600 356.439 C 155.600 355.486,156.667 353.602,157.200 353.616 C 157.310 353.618,157.715 354.305,158.100 355.141 M165.600 361.189 C 165.600 361.389,165.780 361.664,166.000 361.800 C 166.220 361.936,166.400 362.377,166.400 362.779 C 166.400 363.182,166.769 363.936,167.220 364.456 L 168.040 365.400 167.420 364.120 C 167.079 363.416,166.800 362.490,166.800 362.063 C 166.800 361.635,166.530 361.182,166.200 361.055 C 165.870 360.929,165.600 360.989,165.600 361.189 M151.472 367.700 C 150.320 368.547,150.642 422.135,151.800 422.309 C 152.531 422.419,152.540 422.392,151.900 421.995 C 151.245 421.588,151.200 419.863,151.200 394.994 C 151.200 363.894,150.360 367.489,157.580 367.677 C 160.190 367.745,162.242 367.665,162.139 367.500 C 161.809 366.969,152.222 367.149,151.472 367.700 M162.000 370.400 C 162.000 370.840,162.180 371.200,162.400 371.200 C 162.620 371.200,162.800 370.840,162.800 370.400 C 162.800 369.960,162.620 369.600,162.400 369.600 C 162.180 369.600,162.000 369.960,162.000 370.400 M162.000 395.600 C 162.000 411.067,162.138 419.200,162.400 419.200 C 162.662 419.200,162.800 411.067,162.800 395.600 C 162.800 380.133,162.662 372.000,162.400 372.000 C 162.138 372.000,162.000 380.133,162.000 395.600 M248.200 373.807 C 246.656 374.928,245.388 375.951,244.028 377.170 C 243.273 377.846,242.508 378.400,242.328 378.400 C 242.148 378.400,242.000 378.670,242.000 379.000 C 242.000 379.330,241.770 379.600,241.489 379.600 C 241.208 379.600,240.690 379.915,240.339 380.300 C 239.335 381.400,237.294 383.200,237.052 383.200 C 236.931 383.200,235.961 384.055,234.897 385.100 C 229.653 390.249,227.136 392.002,226.003 391.294 C 225.567 391.022,224.859 390.800,224.429 390.800 C 223.999 390.800,223.549 390.640,223.428 390.445 C 223.307 390.250,222.577 389.972,221.804 389.827 C 221.032 389.682,220.400 389.406,220.400 389.214 C 220.400 389.021,219.862 388.745,219.205 388.601 C 218.547 388.457,217.906 388.172,217.781 387.969 C 217.655 387.766,217.108 387.600,216.564 387.600 C 216.020 387.600,215.471 387.330,215.345 387.000 C 215.218 386.670,214.706 386.400,214.206 386.400 C 213.707 386.400,213.074 386.130,212.800 385.800 C 212.526 385.470,211.795 385.200,211.175 385.200 C 210.555 385.200,209.936 385.020,209.800 384.800 C 209.664 384.580,209.034 384.400,208.400 384.400 C 207.766 384.400,207.136 384.580,207.000 384.800 C 206.864 385.020,206.128 385.200,205.364 385.200 C 204.498 385.200,203.888 385.426,203.745 385.800 C 203.616 386.135,203.022 386.400,202.400 386.400 C 201.778 386.400,201.184 386.665,201.055 387.000 C 200.911 387.377,200.299 387.600,199.413 387.600 C 198.636 387.600,198.000 387.772,198.000 387.982 C 198.000 388.192,197.330 388.490,196.510 388.643 C 195.371 388.857,193.329 390.000,194.087 390.000 C 194.468 390.000,198.436 388.498,198.668 388.265 C 198.814 388.119,199.331 388.000,199.818 388.000 C 200.304 388.000,200.926 387.730,201.200 387.400 C 201.474 387.070,202.030 386.800,202.435 386.800 C 202.841 386.800,203.764 386.552,204.486 386.248 C 208.381 384.612,208.468 384.612,212.294 386.263 C 214.198 387.085,216.067 387.863,217.200 388.308 C 217.750 388.523,219.411 389.262,220.892 389.950 C 222.372 390.637,223.936 391.200,224.368 391.200 C 224.800 391.200,225.264 391.380,225.400 391.600 C 225.798 392.245,227.783 392.060,228.625 391.300 C 229.051 390.914,230.030 390.083,230.800 389.452 C 231.570 388.822,233.203 387.382,234.429 386.253 C 244.705 376.791,248.688 373.825,250.300 374.434 C 252.566 375.290,251.330 377.154,244.803 382.725 C 243.594 383.756,242.407 384.780,242.164 385.000 C 239.171 387.712,235.629 390.819,233.140 392.916 C 231.457 394.334,229.668 395.878,229.165 396.347 C 228.205 397.241,226.622 397.483,226.200 396.800 C 226.064 396.580,225.761 396.400,225.527 396.400 C 225.259 396.400,225.286 396.622,225.600 397.000 C 226.526 398.116,228.473 397.729,230.204 396.085 C 231.082 395.251,232.610 393.949,233.600 393.192 C 234.590 392.434,236.140 391.091,237.045 390.207 C 239.814 387.503,241.714 385.821,242.513 385.366 C 247.564 382.489,253.258 374.759,250.800 374.116 C 250.360 374.001,250.000 373.748,250.000 373.553 C 250.000 373.024,249.104 373.150,248.200 373.807 M192.254 390.202 C 191.624 390.531,190.673 390.800,190.142 390.800 C 189.610 390.800,189.071 391.070,188.945 391.400 C 188.813 391.742,188.217 392.000,187.557 392.000 C 186.921 392.000,186.400 392.151,186.400 392.336 C 186.400 392.520,185.950 392.877,185.400 393.127 C 184.113 393.714,184.001 395.880,185.205 396.911 C 186.196 397.760,188.130 397.807,188.800 397.000 C 189.114 396.622,189.141 396.400,188.873 396.400 C 188.639 396.400,188.336 396.580,188.200 396.800 C 187.431 398.044,184.800 396.580,184.800 394.908 C 184.800 394.082,187.063 392.400,188.174 392.400 C 188.464 392.400,188.926 392.130,189.200 391.800 C 189.474 391.470,190.117 391.200,190.630 391.200 C 191.742 391.200,193.600 390.409,193.600 389.936 C 193.600 389.501,193.599 389.501,192.254 390.202 M204.300 390.699 C 202.072 391.692,201.172 392.542,202.800 392.116 C 203.240 392.001,203.600 391.748,203.600 391.553 C 203.600 391.359,204.230 391.200,205.000 391.200 C 205.770 391.200,206.400 391.014,206.400 390.787 C 206.400 390.560,206.805 390.211,207.300 390.012 C 208.113 389.686,208.122 389.652,207.400 389.662 C 206.960 389.668,205.565 390.135,204.300 390.699 M209.124 389.885 C 209.633 389.983,210.147 390.318,210.267 390.631 C 210.387 390.944,210.906 391.200,211.419 391.200 C 211.933 391.200,212.455 391.366,212.581 391.569 C 212.706 391.772,213.347 392.057,214.005 392.201 C 214.662 392.345,215.200 392.629,215.200 392.832 C 215.200 393.034,215.746 393.200,216.413 393.200 C 217.121 393.200,217.721 393.449,217.855 393.800 C 217.982 394.130,218.522 394.400,219.055 394.400 C 219.589 394.400,220.129 394.670,220.255 395.000 C 220.391 395.353,220.991 395.600,221.711 395.600 C 222.385 395.600,223.267 395.899,223.671 396.264 C 224.075 396.630,224.526 396.808,224.673 396.660 C 225.043 396.291,223.567 395.228,222.662 395.213 C 222.256 395.206,221.446 394.951,220.862 394.646 C 220.278 394.342,219.170 393.815,218.400 393.475 C 213.903 391.491,212.835 391.023,211.267 390.347 C 210.314 389.936,209.234 389.625,208.867 389.654 C 208.495 389.685,208.609 389.787,209.124 389.885 M200.229 392.354 C 200.108 392.549,199.513 392.802,198.905 392.916 C 197.312 393.216,194.851 394.189,194.307 394.733 C 194.050 394.990,193.372 395.200,192.800 395.200 C 191.649 395.200,189.608 396.030,189.603 396.500 C 189.598 396.970,190.176 396.854,191.024 396.213 C 191.451 395.890,192.363 395.620,193.051 395.613 C 193.739 395.606,194.526 395.330,194.800 395.000 C 195.074 394.670,195.797 394.400,196.406 394.400 C 197.022 394.400,197.617 394.134,197.745 393.800 C 197.881 393.445,198.482 393.200,199.216 393.200 C 199.899 393.200,200.727 392.930,201.057 392.600 C 201.590 392.067,201.590 392.000,201.052 392.000 C 200.719 392.000,200.349 392.159,200.229 392.354 M167.701 397.400 C 167.705 398.280,167.787 398.593,167.883 398.095 C 167.979 397.598,167.975 396.878,167.875 396.495 C 167.775 396.113,167.696 396.520,167.701 397.400 M167.403 402.859 C 167.778 403.843,165.677 403.814,222.200 403.596 L 275.000 403.393 221.580 403.296 C 179.484 403.220,168.053 403.094,167.656 402.700 C 167.253 402.299,167.202 402.331,167.403 402.859 M159.105 422.683 C 159.602 422.779,160.322 422.775,160.705 422.675 C 161.087 422.575,160.680 422.496,159.800 422.501 C 158.920 422.505,158.607 422.587,159.105 422.683 M151.280 427.680 C 151.016 427.944,150.800 429.101,150.800 430.251 C 150.800 433.481,151.118 433.645,157.140 433.512 L 162.200 433.400 162.296 432.400 C 162.391 431.415,162.386 431.413,162.009 432.300 C 161.643 433.159,161.415 433.200,157.041 433.200 C 151.692 433.200,151.200 432.946,151.200 430.186 C 151.200 427.827,151.739 427.600,157.340 427.600 L 161.933 427.600 162.335 428.700 C 162.556 429.305,162.751 429.563,162.768 429.274 C 162.879 427.436,162.207 427.200,156.866 427.200 C 153.428 427.200,151.603 427.357,151.280 427.680 " stroke="none" fill="#c4bcc4" fill-rule="evenodd"></path></g></svg>